/* XPM */
static char *_2046_498f593c9f022082dd63415a039fab864f91c68e8719e21dd72cac7a4382c443_0[] = {
/* columns rows colors chars-per-pixel */
"64 64 224 2 ",
"   c #28352A",
".  c #471917",
"X  c #4B1C19",
"o  c #481917",
"O  c #521D1B",
"+  c #4A231C",
"@  c #58231E",
"#  c #503A1D",
"$  c #552926",
"%  c #5D3532",
"&  c #512C23",
"*  c #692623",
"=  c #7B2D2A",
"-  c #742B27",
";  c #793A2A",
":  c #643D37",
">  c #6B3A28",
",  c #394C19",
"<  c #265314",
"1  c #2B5315",
"2  c #2B5B18",
"3  c #2E4D15",
"4  c #2E621A",
"5  c #31681C",
"6  c #36721F",
"7  c #335D25",
"8  c #397923",
"9  c #386C32",
"0  c #4A491D",
"q  c #634224",
"w  c #694737",
"e  c #76513D",
"r  c #587538",
"t  c #496A2D",
"y  c #6B763C",
"u  c #554F27",
"i  c #183949",
"p  c #0B2353",
"a  c #0D265C",
"s  c #152B56",
"d  c #142C4F",
"f  c #27395C",
"g  c #0F2A64",
"h  c #112D6C",
"j  c #133379",
"k  c #15306D",
"l  c #2B3F64",
"z  c #2E4F4E",
"x  c #374765",
"c  c #31446C",
"v  c #1C434A",
"b  c #4C4E47",
"n  c #765645",
"m  c #7A5956",
"M  c #6F4B49",
"N  c #7A7855",
"B  c #4A5870",
"V  c #59646F",
"C  c #6F7675",
"Z  c #5C6E53",
"A  c #9B1F13",
"S  c #9C2215",
"D  c #9E2B1B",
"F  c #9D371A",
"G  c #A42115",
"H  c #AB2317",
"J  c #AE2418",
"K  c #A3291B",
"L  c #B32519",
"P  c #BB271A",
"I  c #BE281B",
"U  c #A5351A",
"Y  c #812F2B",
"T  c #85312D",
"R  c #8B332E",
"E  c #88392E",
"W  c #8F3530",
"Q  c #923531",
"!  c #A53727",
"~  c #A83A2F",
"^  c #C0281B",
"/  c #A7421D",
"(  c #A84528",
")  c #AB4637",
"_  c #AD5628",
"`  c #8C7936",
"'  c #AF6A27",
"]  c #9F461D",
"[  c #C4782C",
"{  c #B35849",
"}  c #B45950",
"|  c #8B7752",
" . c #8C7052",
".. c #B36545",
"X. c #BC7A55",
"o. c #B86B56",
"O. c #866866",
"+. c #937977",
"@. c #8D7371",
"#. c #BC726A",
"$. c #805842",
"%. c #C17A72",
"&. c #3E8224",
"*. c #438D28",
"=. c #4A9A2C",
"-. c #47942A",
";. c #428C36",
":. c #4EA32E",
">. c #50A62F",
",. c #4EA230",
"<. c #73884A",
"1. c #7D8C74",
"2. c #A5892C",
"3. c #AA8E2E",
"4. c #A7822E",
"5. c #A58B31",
"6. c #A98E35",
"7. c #AC923A",
"8. c #B79A34",
"9. c #B28E2F",
"0. c #BEA134",
"q. c #988239",
"w. c #CF8E33",
"e. c #C4A536",
"r. c #D6AC3A",
"t. c #D4B53C",
"y. c #DCBC3F",
"u. c #CFB13B",
"i. c #E3B33D",
"p. c #948345",
"a. c #8B8C55",
"s. c #AF9543",
"d. c #B29B49",
"f. c #AF8940",
"g. c #BAA456",
"h. c #918E70",
"j. c #AB956D",
"k. c #B9B77A",
"l. c #AEA973",
"z. c #D0B654",
"x. c #E2BE40",
"c. c #C48D6C",
"v. c #C2AC66",
"b. c #CAA775",
"n. c #CBBA7A",
"m. c #C9B271",
"M. c #C0845C",
"N. c #E4C241",
"B. c #EBC542",
"V. c #EEC943",
"C. c #F5CC45",
"Z. c #F1C643",
"A. c #DFC040",
"S. c #173A89",
"D. c #193F95",
"F. c #1A419B",
"G. c #1D47A8",
"H. c #1F4CB4",
"J. c #204FBA",
"K. c #204CB5",
"L. c #2150BE",
"P. c #2B57BB",
"I. c #2F59B6",
"U. c #264893",
"Y. c #556B94",
"T. c #586A8D",
"R. c #647289",
"E. c #2253C4",
"W. c #2357CC",
"Q. c #295AC5",
"!. c #305DC0",
"~. c #7C8591",
"^. c #97928A",
"/. c #A89492",
"(. c #B1AF89",
"). c #B7A7A5",
"_. c #ADB3AE",
"`. c #9AA79F",
"'. c #CB938C",
"]. c #C8BB88",
"[. c #D4B982",
"{. c #D0AD96",
"}. c #C4B8B7",
"|. c #D8B1AD",
" X c #D6C68C",
".X c #DBCC93",
"XX c #D3C695",
"oX c #DDD29B",
"OX c #DDD096",
"+X c #CCC38F",
"@X c #E0D49D",
"#X c #DDD2A8",
"$X c #D9C6BA",
"%X c #D3CBB6",
"&X c #E2D6A4",
"*X c #E4DAAC",
"=X c #E2D7A8",
"-X c #E7DDB2",
";X c #E8DFB7",
":X c #E7DEB9",
">X c #E0CBA4",
",X c #EAE1BC",
"<X c #D9D5D5",
"1X c #D2CDCB",
"2X c #E7D9D6",
"3X c #E5D6C9",
"4X c #ECE5C4",
"5X c #EEE7C9",
"6X c #EFE8CB",
"7X c #F0E9CE",
"8X c #E9E7DB",
"9X c #F2ECD3",
"0X c #F4EFDA",
"qX c #E6E5E4",
"wX c #EDEDED",
"eX c #EBE8E5",
"rX c #F1EDEC",
"tX c #F2E6E5",
"yX c #F4F2EB",
"uX c #F3F3F3",
"iX c #FAFAFA",
"pX c #F8F7F5",
"aX c #DADCE2",
"sX c None",
/* pixels */
"sXsXsXsXsXsXsXsXsXsXsXsXsXsXsXsXsXsXsXsXsXsXsXsXsXsXsXsXsXsXsXsXsXsXsXsXsXsXsXsXsXsXsXsXsXsXsXsXsXsXsXsXsXsXsXsXsXsXsXsXsXsXsXsX",
"wXiXuXuXiXwXiXpXuXiXwXuXiXwXiXpXuXiXwXiXpXrXiXuXuXiXrXiXuX2X|.%.} |.tXiXuXuXiXwXiXuXuXiXwXiXiXwXiXuXuXiXwXpXiXwXiXuXpXiXwXiXuXuX",
"uXuXuXuXuXuXuXuXuXuXuXuXuXuXuXuXuXuXuXuXuXrXtX2X$X{.#.} ~ G J L P H ~ {.qXuXpXuXuXuXuXuXuXuXuXuXuXuXuXuXuXuXuXuXuXuXuXuXuXuXuXuX",
"pXuXuXuXwXiXwXuXpXwXpXuXwXiXwXpXuXqXtX$X{.'.} ~ G H J P P ^ ^ ^ ^ ^ P H { '.2XiXwXuXpXrXiXrXuXiXwXpXuXwXiXuXwXpXwXpXuXwXiXwXuXpX",
"wXpXwXuXiXeXiXuXeXuXwXrXuX$X|.%.{ ) ! H H L L ^ ^ ^ ^ ^ ^ ^ ^ ^ ^ ^ ^ ^ P H ! %.2XuXrXiXeXuXiXeXiXuXwXiXwXpXiXwXiXwXuXiXwXiXuXwX",
"iXwXuXuXwXiXrXwX2X|.'.#.{ K K H L P I ^ ^ ^ ^ ^ ^ ^ ^ ^ ^ ^ ^ ^ ^ ^ ^ ^ P ^ P L ) %.2XwXiXuXwXiXwXuXuXwXiXuXwXiXwXiXuXwXiXwXuXuX",
"uXuXuXuXuX3X} K A G H J P ^ ^ ^ ^ ^ ^ ^ ^ ^ ^ ^ ^ ^ ^ ^ ^ ^ ^ ^ ^ ^ ^ ^ ^ ^ ^ ^ I H G #.2XuXuXuXuXuXuXuXwXuXuXuXuXuXuXuXuXuXuXuX",
"wXpXuXuXwXD H L ^ ^ ^ ^ ^ ^ ^ ^ ^ ^ ^ ^ ^ ^ ^ ^ ^ ^ ^ ^ ^ ^ ^ ^ ^ ^ ^ ^ ^ ^ ^ ^ ^ I I L A #.2XrXpXuXwXiXwXuXpXwXiXwXuXuXwXuXuXuX",
"iXwXpXpX'.G ^ P L P ^ ^ ^ ^ ^ ^ ^ ^ ^ ^ ^ ^ ^ ^ ^ ^ ^ ^ ^ ^ ^ ^ ^ ^ ^ ^ ^ ^ ^ ^ ^ ^ ^ ^ ^ L K o.|.uXpXqXiXuXrXiXwXpXuXwXiXwXuXiX",
"wXiXwXwX{ J ^ ^ P J L ^ ^ ^ ^ ^ ^ ^ ^ ^ ^ ^ ^ ^ ^ ^ ^ ^ ^ ^ ^ ^ ^ ^ ^ ^ ^ ^ ^ ^ ^ ^ ^ ^ ^ ^ P L K #.|.uXeXpXuXwXiXwXuXuXwXiXuXwX",
"pXwXuXtX~ L ^ ^ ^ ^ P G L ^ ^ ^ ^ ^ ^ ^ ^ ^ ^ ^ ^ ^ ^ ^ ^ ^ ^ ^ ^ ^ ^ ^ ^ ^ ^ ^ ^ ^ ^ ^ ^ ^ ^ ^ ^ L G } $XwXrXuXwXuXuXuXiXwXuXuX",
"uXuXuXwX) L ^ ^ ^ ^ ^ ^ L G P ^ ^ ^ ^ ^ ^ ^ ^ ^ ^ ^ ^ ^ ^ ^ ^ ^ ^ ^ ^ ^ ^ ^ ^ ^ ^ ^ ^ ^ ^ ^ ^ ^ ^ ^ P L H } {.rXuXuXuXuXuXuXuXuX",
"wXpXwXwX} G L I ^ ^ ^ ^ ^ P J H P ^ ^ ^ ^ ^ ^ ^ ^ ^ ^ ^ ^ ^ ^ ^ ^ ^ ^ ^ ^ ^ ^ ^ ^ ^ ^ ^ ^ ^ ^ ^ ^ ^ ^ ^ P L G } |.wXuXiXwXiXwXwX",
"iXwXiXpXc.A L L P ^ ^ ^ ^ ^ ^ P G L ^ ^ ^ ^ ^ ^ ^ ^ ^ ^ ^ ^ ^ ^ ^ ^ ^ ^ ^ ^ ^ ^ ^ ^ ^ ^ ^ ^ ^ ^ ^ ^ ^ ^ ^ ^ ^ P G ! '.wXiXwXuXiX",
"wXpXwXuXrX#.K J L P ^ ^ ^ ^ ^ ^ ^ L H L ^ ^ ^ ^ ^ ^ ^ ^ ^ ^ ^ ^ ^ ^ ^ ^ ^ ^ ^ ^ ^ ^ ^ ^ ^ ^ ^ ^ ^ ^ ^ ^ ^ ^ ^ ^ P P G ~ '.2XuXwX",
"uXuXuXuXrX8X#.G G J L P ^ ^ ^ ^ ^ ^ ^ H H P ^ ^ ^ ^ ^ ^ ^ ^ ^ ^ ^ ^ ^ ^ ^ ^ ^ ^ ^ ^ ^ ^ ^ ^ ^ ^ ^ ^ ^ ^ ^ ^ ^ ^ ^ ^ I L A ) |.uX",
"iXwXuXuX].5.5.8.' H L L L I ^ ^ ^ ^ ^ ^ P H J I ^ ^ ^ ^ ^ ^ ^ ^ ^ ^ ^ ^ ^ ^ ^ ^ ^ ^ ^ ^ ^ ^ ^ ^ ^ ^ ^ ^ ^ ^ ^ I L H H A S ! '.iX",
"wXiXwX3X7.u.i.x.u.[ U H J L L I ^ ^ ^ ^ I I L H L ^ ^ ^ ^ ^ ^ ^ ^ ^ ^ ^ ^ ^ ^ ^ ^ ^ ^ ^ ^ ^ ^ ^ ^ ^ ^ P L J G G A ( ..M.[.3XrXuX",
"pXwXuX-X9.C.C.C.Z.t.9.( G H J L P I ^ ^ ^ ^ ^ I H H I ^ ^ ^ ^ ^ ^ ^ ^ ^ ^ ^ ^ ^ ^ ^ ^ ^ ^ ^ ^ ^ L H G G G ~ ..M.[.>X4X.X4XwXuXuX",
"uXwXY.b 3.B.C.C.C.C.Z.e._ S H J J L I ^ ^ ^ I I I P G L ^ ^ ^ ^ ^ ^ ^ ^ ^ ^ ^ ^ ^ ^ ^ ^ I J G A A ~ { c..X*X,X9X7X4X:XoXtXuXuXuX",
"uX_.a x 5.x.x.x.V.C.C.C.Z.e./ A L J L L I ^ ^ ^ ^ ^ ^ L G P ^ ^ ^ ^ ^ ^ ^ ^ ^ ^ P J G A S ( X.b. X*X4X7X4X*X;X4X7X0X6XOX8XpXyXyX",
"uXT.g P.N 7.0.u.x.N.C.C.C.C.B.w.U H L L L L P ^ ^ ^ ^ ^ I H L I ^ ^ ^ P P L K K ! _ X.b..X&X;X,X4X:X,X,X7X0X0X0X0X0X9X.X].%XeXiX",
"<Xc S.W.W.Y.p.5.8.x.x.B.C.C.C.C.i._ S J L L L L I ^ ^ ^ ^ ^ I L P H G D ! _ c.[..X&X:X4X,X*X,X7X9X9X7X4X:X7X0X0X9X7X3X X..' s.].",
"<Xk G.W.W.W.Q.B ` 3.8.t.y.B.V.C.C.Z.w.U K L L L J P I ^ ^ ^ ^ L A X.c.[..X*X*X-X:X4X5X7X9X4X,X,X4X4X7X9X0X4X;X&XOXb.d.) D S ] f.",
"aXc D.W.W.W.W.E.U.b <.3.0.y.A.V.C.C.C.i./ G J L L L L P I I I G { @X;X4X7X6X7X7X7X4X:X:X,X5X7X9X9X6X,X#X#X[.g...( K A S ( ..v.#X",
"aXT.j H.E.W.W.W.W.G.s b q.5.0.t.y.B.Z.Z.Z.w.S G L L L L L P L S [.7X0X0X7X,X;X-X:X7X0X0X0X7X,X*X.X Xb.X.! A A S F _ 7.m.oX,X-X5X",
"iX_.a G.J.L.W.W.W.W.L.j a V p.2.8.y.y.Z.C.C.i.( S L L L L L H ! &X0X6X4X7X9X6X,X7X7X;X&X.X@Xb...( S A A F _ ' s.k..X,X,X6X9X#XyX",
"wX1Xd g F.L.L.W.W.W.W.W.F.g j T.p.2.0.t.y.B.Z.V.w.D K J L L G ) *X7X6X,X;X-X-X&X.Xn.b.X.) K A U ] _ ' 5.d.g. X*X;X4X4X7X6XoXoXeX",
"wX_.< v p F.J.L.E.W.W.W.W.G.h j I.T.p.5.0.t.A.N.B.w./ G L L G ! @X;X*X*X@X[.b.M._ ~ K G / _ ' 9.9.7.g.n.&X,X,X4X4X,X,X#X Xg.5.+X",
"pX`.4 -.4 p j J.L.W.W.W.W.W.E.S.g G.Q.Y.p.5.0.t.y.N.i.[ S H H A [. Xn.M.) ! G G U _ w.r.e.9.8.d.n.#X,X,X5X5X,X,X-X Xk.7.5.s.+X8X",
"wX`.5 =.&.&.a j F.L.E.W.W.W.W.W.F.h S.W.!.Y.p.3.8.t.A.y.e.U H A ) ! G A U _ w.r.t.e.8.9.d.m.oX-X,X4X,X4X,X*X.Xk.d.3.7.n.%XyXyXwX",
"pX_.4 -.>.=.&.v a F.J.L.W.W.W.W.W.H.j j E.W.!.R.p.9.0.t.y.r.' G G / [ w.i.Z.r.8.3.s.g. X&X,X,X,X,X,X,X&Xn.g.3.5.` | 3XwXpXuXuXuX",
"uX<X7 &.=.=.=.=.9 a k E.L.E.W.W.W.W.E.G.g G.W.W.W.Y.p.2.8.u.A.u.N.C.C.C.C.e.3.v..X;X-X;X4X4X,X,X&Xn.d.2.2.6.g.].8XrXuXuXuXuXuXuX",
"wXyX_.5 *.=.=.=.,.&.v h G.L.E.W.W.W.W.W.H.S.F.E.W.W.Q.Y.a.5.8.u.y.y.A.N.B.3.z.6X9X4X5X4X;X&X].g.7.2.6.g.n.&X&X4XpXwXuXpXwXpXuXuX",
"iXwXuX1.2 *.=.=.=.,.&.v a F.L.L.W.W.W.W.W.E.S.D.E.W.W.W.E.R.p.2.8.t.y.y.u.3.z.7X9X4X*XXXv.s.2.5.d.n.#X4X9X5X@XyXwXiXuXwXiXwXuXuX",
"wXiXrXqXr 4 =.=.&.,.>.>.z p j H.L.E.W.W.W.W.W.H.S.E.W.W.W.E.Q.Y.` 3.8.u.t.3.8.#X.Xm.7.5.2.7.m.*X9X9X4X,X4X,XOXwXiXwXuXpXwXiXuXwX",
"uX%X@.m + , 5 =.,.=.,.,.>.9 d h G.E.J.E.W.W.W.W.E.H.E.K.F.F.h g d b ` 2.8.5.2.7.6.2.6.g.+X:X9X0X9X9X9X4X:X:X+X~.1XuXuXuXuXwXuXuX",
"qXM @ $ * E 3 6 ,.,.=.,.>.:.9 d g F.H.L.E.W.W.W.W.W.S.g p p i B C ^.].m.d.2.2.7.s.m.oX4X9X0X0X5X4X4X4X:X-X&X(.f j _.uXuXuXuXuXuX",
").X = Q Q Y w < &.,.=.&.:.:.:.8 i p D.L.L.E.W.W.E.E.p s h.]..XOX&X,X7X0X5X Xk.:X0X0X0X7X4X:X:X9X4X*XOX X(.@.x a a c uXiXqXiXuXwX",
"/.X R Q Q R * # 2 &.,.,.:.>.>.:.5 7 p h K.J.E.E.W.F.p R.&X,X7X0X7X,X4X4X9X0X0X4X;X,X4X9X6X*XoXXX(.1.B d p p x _.1XiXuXwXiXwXuXiX",
"@.O Y R Q Q Q - # 4 *.=.=.=.>.>.:.6 9 v g F.L.J.E.S.a ^.5X8X5X5X6X0X0X9X5X,X4X4X5X:X#X+X(.h.V z p d d i z 1XuXuXuXuXuXuXuXuXuXuX",
"+.X Y Y Y R Q Q W 0 4 =.=.=.:.:.>.:.8 &.z p F.J.H.S.g ^.6X0X0X0X0X0X0X0X7X,X&XOX+Xl.V f s p s x Z h.l.(.qXuXuXuXuXuXuXuXuXuXuXuX",
").. * Y T T R R Q E 0 5 =.=.=.:.>.>.:.6 &.;.i h H.D.a ^.4X0X0X0X6X,X*X@X]./.C b s p p x C ^.XX#X,X*X.Xw m %XwXiXwXuXuXwXiXwXuXuX",
"}.% X - Y T R T R Q E , 6 =.=.:.>.>.>.:.&.,.&.i g G.p R.#X5X,X&XOX].h.V l a p s B ^._.%X6X7X0X0X0X,X].* X & m %XiXwXuXiXwXiXuXwX",
"iX}.% . @ Y R T T R Q T < &.:.=.:.>.>.>.,.&.&.5 i p p c XX+X(.C f p p p s B `.8X9X5X4X4X4X9X9X4X4X*Xk.q W * + . +.iXuXwXiXwXuXuX",
"uXuXqX@.O o - T R T T W ; 2 &.:.=.:.>.,.5 < 2 <.l.1.p p l p p p p x ~._.,X4X4X4X9X9X,X,X,X4X,X;X*XOX X< 1 + . > ).uXuXuXuXuXuXuX",
"wXiXwXuX}.: . @ = T T R E q 4 &.&.>.,.&.t k.(.:X4X4X_.x p c V `.%X4X7X0X0X0X0X0X0X7X5X-X=X.Xn.l.a.r 7 1 7 N j.:XuXwXuXiXwXuXuXwX",
"iXwXpXuXeX2XO.X O - T T T E u 6 &.,.,.4 l.5X7X7X4X4X,X%X_.3X0X0X9X7X7X7X9X7X7X,X#XXXk.l.<.;.7 1 < 3 u a.+X#X:XuXwXiXuXwXiXwXuXiX",
"wXiXwXuXiXwXuX).$ . * = T T T 0 6 -.=.< OX0X0X0X0X0X0X7X6X6X5X,X,X5X4X*X@X Xk.a.r 7 2 < 3 , , # n k.#X4X,X&X0XwXpXwXuXiXwXpXuXwX",
"uXuXuXuXuXuXuXwX<XM o O = T R = 0 6 =.< oX9X6X,X,X,X,X6X5X,X,X*XoXk.h.<.r 5 2 1 , , , + . w +.{.,X4X6X9X0X&X3XuXuXuXuXuXuXuXuXuX",
"iXwXuXuXwXiXuXuXuXwX/.X o * T T ; , 6 2 k.-X7X0X0X6X,X&X Xk.a.r 2 2 < < , 0 q - O o & $.n.-X5X5X9X0X0X0X0X=X ./.qXpXuXrXiXwXuXuX",
"wXiXwXuXiXqXiXuXwXiXeX<X: o + = T ; 1 4 ;.@X*X@X+Xa.y t < < < < , q ; Q = @ X + e j.&X4X7X7X6X9X0X0X5X7X4X&X| . m wXuXpXqXiXuXwX",
"iXeXpXuXwXiXwXuXpXwXiXuXqX+.% X * Y > < < r y 7 2 < , 0 0 0 ; W W = * O X : | {.:X9X9X7X5X5X7X7X4X:X*X Xj.e + + M iXuXwXiXwXuXiX",
"uXuXuXuXuXuXuXuXuXuXuXuXuXwX}.: X @ = > < < < , 0 q q W W = T R * + & e j.>X4X0X9X4X4X5X9X5X,X,X=X].h.w X $ m ).eXuXuXuXuXuXuXuX",
"wXpXwXuXpXwXuXuXwXuXwXuXpXwXuXqXO.X o - ; > Y Q R Q Q Q R O O O w j..X,X9X0X7X,X7X9X7X,X7X,X.Xk.n $ o % +.2XyXuXpXuXuXiXwXiXuXwX",
"iXwXpXuXwXiXwXuXiXwXiXuXwXiXuXuXrX).: o @ - Y R W W Q Q * X  .a.&X7X9X9X5X5X9X9X5X4X,X*X]. .: + X m ).<XiXuXuXuXwXpXuXwXiXwXuXuX",
"wXiXwXuXiXwXiXuXwXiXwXuXiXwXuXuXuXiX1Xm o X * T T W Q Q O : .X,X9X7X5X7X9X7X5X4X;X&Xl. .$ X $ O.1XqXuXiXwXuXuXwXiXwXuXiXwXiXuXwX",
"uXuXuXuXwXiXwXuXuXwXuXuXwXiXwXuXuXwXuXwX/.$ . * Y T R T X n =X6X,X9X0X7X4X7X,X Xj.: X o % /.qXiXwXuXuXwXpXuXuXpXwXuXuXwXpXwXuXuX",
"uXuXuXuXuXuXuXuXuXuXuXuXuXuXuXuXuXuXuXuXwX<XM o X = T Y X e >XtX0X9X9X5X@X]. .+ . o m 1XrXuXuXuXwXuXuXuXuXuXuXuXuXuXuXuXuXuXuXuX",
"wXiXwXuXuXwXpXuXwXiXuXuXiXwXuXuXwXiXwXpXuXwXrX^.$ . * = X > XX0X7X,XXXj.e + X M ^.<XuXuXwXuXuXwXiXwXwXiXwXuXuXwXiXwXuXpXwXiXuXwX",
"iXwXuXuXeXiXwXuXiXwXiXuXwXiXeXuXuXwXiXwXuXiXeXiX1X: X O X O b.=X]. .& o $ m }.uXwXuXiXwXiXuXwXiXwXuXiXqXiXuXwXiXwXiXuXwXiXwXuXiX",
"wXiXuXuXiXwXiXuXwXiXwXuXiXwXiXuXuXiXwXuXuXwXiXwXuXtX+.O . . n n & X w /.1XeXpXeXuXuXuXpXwXuXpXwXuXuXuXiXwXuXuXuXiXwXuXpXwXpXuXwX",
"uXuXuXuXuXuXuXuXuXuXuXuXuXuXuXuXuXuXuXuXuXuXuXuXuXuXwX).% . o o M ).2XuXuXuXuXuXuXuXuXuXuXuXuXuXuXuXuXuXuXuXuXuXuXuXuXuXuXuXuXuX",
"iXwXiXuXrXiXwXuXiXeXiXuXuXiXwXpXpXwXiXuXuXiXwXiXiXwXiXrXqX@.O.<XuXuXiXwXiXpXwXiXuXuXpXuXiXuXuXiXwXiXuXwXiXuXuXiXwXiXuXuXiXwXuXiX"
};
