/* XPM */
static char *_8908_9babd814f69727cdac7152e92e724a0e4135bcee1c52eeac3049957bc52da776_0[] = {
/* columns rows colors chars-per-pixel */
"64 64 218 2 ",
"   c #42589A",
".  c #43599A",
"X  c #43599B",
"o  c #455A9B",
"O  c #465B9C",
"+  c #465C9C",
"@  c #495E9E",
"#  c #4A609E",
"$  c #4B609E",
"%  c #4C61A0",
"&  c #4D62A0",
"*  c #4E62A0",
"=  c #4F64A1",
"-  c #5064A1",
";  c #5065A1",
":  c #5165A1",
">  c #5065A2",
",  c #5165A2",
"<  c #5166A2",
"1  c #5367A2",
"2  c #5367A3",
"3  c #5468A3",
"4  c #5569A4",
"5  c #5669A4",
"6  c #576AA4",
"7  c #586BA5",
"8  c #5F72A9",
"9  c #6A7BAD",
"0  c #6879AE",
"q  c #6A7CAF",
"w  c #6B7CAF",
"e  c #6F7FB0",
"r  c #7B8AB7",
"t  c #7C8BB7",
"y  c #7C8BB8",
"u  c #7D8CB8",
"i  c #7E8DB8",
"p  c #7E8CB9",
"a  c #7E8DB9",
"s  c #7E8DBA",
"d  c #7F8EBA",
"f  c #808EB8",
"g  c #808EB9",
"h  c #808FB9",
"j  c #818FB9",
"k  c #808EBA",
"l  c #808EBB",
"z  c #808FBB",
"x  c #8190BA",
"c  c #8290BA",
"v  c #8290BB",
"b  c #8291BB",
"n  c #8391BB",
"m  c #8391BC",
"M  c #8392BC",
"N  c #8593BD",
"B  c #8593BE",
"V  c #8896BC",
"C  c #8896BE",
"Z  c #8F9CC2",
"A  c #909CC0",
"S  c #919DC0",
"D  c #919DC1",
"F  c #929EC1",
"G  c #929EC2",
"H  c #939FC2",
"J  c #939FC3",
"K  c #949FC2",
"L  c #94A0C3",
"P  c #94A0C4",
"I  c #95A1C4",
"U  c #95A1C5",
"Y  c #96A2C5",
"T  c #96A2C6",
"R  c #97A3C6",
"E  c #97A3C7",
"W  c #98A4C7",
"Q  c #9CA6C6",
"!  c #9EA8C6",
"~  c #99A5C8",
"^  c #9CA7C8",
"/  c #9FAAC9",
"(  c #A9B3CF",
")  c #ABB4CD",
"_  c #ACB4CC",
"`  c #ACB4CD",
"'  c #ACB4CE",
"]  c #ADB5CF",
"[  c #B1B9CF",
"{  c #ABB4D1",
"}  c #AEB7D0",
"|  c #B1B9D0",
" . c #B2B9D0",
".. c #B2BAD0",
"X. c #B2BAD1",
"o. c #B3BAD1",
"O. c #B3BBD1",
"+. c #B4BBD2",
"@. c #B4BCD2",
"#. c #B3BCD4",
"$. c #B5BDD4",
"%. c #B4BCD5",
"&. c #B6BDD4",
"*. c #B6BED4",
"=. c #B7BED4",
"-. c #B6BED5",
";. c #B7BED5",
":. c #B5BDD6",
">. c #B7BFD6",
",. c #B8BFD6",
"<. c #BAC0D3",
"1. c #B9C0D4",
"2. c #B8C0D5",
"3. c #B9C0D5",
"4. c #B9C0D6",
"5. c #B8C0D7",
"6. c #B9C0D7",
"7. c #B9C1D7",
"8. c #BAC1D7",
"9. c #BBC2D6",
"0. c #B9C1D8",
"q. c #BAC1D8",
"w. c #BBC2D9",
"e. c #BCC3DA",
"r. c #BDC4D9",
"t. c #BCC4DB",
"y. c #BDC4DB",
"u. c #BDC5DB",
"i. c #BEC5DB",
"p. c #BFC6DB",
"a. c #BDC5DC",
"s. c #BEC5DC",
"d. c #C2C8DA",
"f. c #C2C9DB",
"g. c #C3C9DB",
"h. c #C5CAD8",
"j. c #C6CBD9",
"k. c #C4CBDD",
"l. c #C5CBDD",
"z. c #CBCFDA",
"x. c #C8CDDC",
"c. c #CBD0DD",
"v. c #CED1DC",
"b. c #D5D7DF",
"n. c #C7CDE1",
"m. c #CED3E2",
"M. c #CFD3E2",
"N. c #CFD5E5",
"B. c #D5D8E0",
"V. c #D6D8E0",
"C. c #D6D9E1",
"Z. c #D7D9E1",
"A. c #D7DAE2",
"S. c #D6DAE5",
"D. c #D8DBE3",
"F. c #D9DBE3",
"G. c #D9DCE4",
"H. c #DADCE4",
"J. c #DADDE5",
"K. c #DBDDE5",
"L. c #DBDEE6",
"P. c #DCDEE4",
"I. c #DCDFE7",
"U. c #DDDFE7",
"Y. c #DBDFE9",
"T. c #DFE1E6",
"R. c #DEE1E9",
"E. c #DFE1E9",
"W. c #DFE2EA",
"Q. c #E0E2E8",
"!. c #E0E2EA",
"~. c #E0E3EA",
"^. c #E0E2EB",
"/. c #E2E4E9",
"(. c #E2E4EB",
"). c #E0E3ED",
"_. c #E1E4EC",
"`. c #E2E5ED",
"'. c #E3E5ED",
"]. c #E3E6ED",
"[. c #E3E6EE",
"{. c #E4E7EF",
"}. c #E7E9EE",
"|. c #E9E9E9",
" X c #EAEAEA",
".X c gray92",
"XX c #E9EAED",
"oX c #EAEBEC",
"OX c #EBEBED",
"+X c #E9EAEE",
"@X c #ECECEC",
"#X c gray93",
"$X c #EDEDEF",
"%X c #EEEEEE",
"&X c #EFEFEF",
"*X c #E5E8F0",
"=X c #E6E8F0",
"-X c #E6E9F1",
";X c #E7E9F1",
":X c #E8EAF1",
">X c #EFF0F1",
",X c gray94",
"<X c #F1F1F1",
"1X c #F1F2F2",
"2X c gray95",
"3X c #F3F3F3",
"4X c #F1F2F5",
"5X c #F4F4F4",
"6X c gray96",
"7X c #F5F5F6",
"8X c #F6F6F6",
"9X c gray97",
"0X c #F8F8F8",
"qX c #F9F9F9",
"wX c gray98",
"eX c #FBFBFB",
"rX c gray99",
"tX c #FDFDFD",
/* pixels */
"<XqX XeX#X3X6X@XeX.X6X3X,XwX.XeX<X2X8X.XwX.X5X5X#XwX.XwX2X<XqX.XwX%X3X6X.XeX@X9X3X,XeX XqX<X2X8X XeX@X5X5X,XeX XqX2X<XqX XeX#X3X",
"5X.XrX|.wX2X<XwX|.rX,X3X6X.XrX X6X3X,XeX XeX<X2XwX XeX.X5X5X.XeX XqX2X<XrX XeX%X3X6X|.rX.X6X3X&XrX|.wX<X2X8X|.tX@X5X5X.XrX|.wX2X",
"<XwX|.rX@X3X6X.XrX X6X3X,XeX XrX<X2X8X.XrX X5X5X@XeX XeX2X<XwX XeX#X3X6X XrX.X0X3X,XrX XwX<X2X8X|.rX.X5X5X&XrX|.wX2X<XwX|.rX@X3X",
"5X%XqX@X0X2X<X0X@XqX<X3X6X#XqX@X5X3X<X0X#XqX2X2X9X#XqX#X5X5X%XqX#X9X2X<XqX#X0X&X3X6X@XqX#X5X3X<XqX@X0X2X2X6X@XqX%X5X5X%XqX@X0X2X",
"<XqX.XwX#X3X5X#XwX@X6X3X<XqX@XwX<X2X6X@XwX@X5X3X#XqX@XqX2X<XqX@XqX%X3X6X@XwX@X9X3X<XwX.XqX<X2X6X.XwX#X5X5X,XwX.X0X2X<XqX.XwX#X3X",
"5X%X0X#X9X3X2X9X#X0X<X3X5X%X0X%X5X3X<X0X#X0X2X2X9X%X0X%X3X5X&X0X%X8X2X2X0X#X0X,X3X5X#X0X%X5X3X<X0X#X9X2X2X6X#XqX&X5X5X%X0X#X9X3X",
"2X6X,X8X<X3X3X,X6X,X3X3X2X6X,X6X2X3X5X,X6X,X3X3X<X6X,X6X2X2X6X,X6X<X3X3X,X6X,X5X3X2X6X,X6X2X2X5X,X6X,X3X3X2X8X,X6X2X2X6X,X8X<X3X",
"3X3X3X3X3X3X3X3X3X3X3X3X3X3X3X3X3X3X3X3X3X3X3X3X3X3X3X3X3X3X3X3X3X3X3X3X3X3X3X3X3X3X3X3X3X3X3X3X3X3X3X3X3X3X3X3X3X3X3X3X3X3X3X3X",
"3X<X6X,X6X3X2X6X,X].9.>.6...y.| 6.>.$.t. .y.*.-.e. .t...,.5.X.y...w.;.&.y.| t.+.>.6.[ u.X.5.>.$.a.[ e.-.-.0.[ s.c.>X3X<X6X,X6X3X",
"2X9X#X0X&X3X5X%Xy.+                                                                                               9 XX9X#X0X&X3X",
"5X@XeX XqX2X<X4X8                                                                                                   ' @XeX XqX2X",
"<XwX XrX@X3X6XV.:                                                                                                   E wX XrX@X3X",
"5X@XeX.XqX2X<X*X,                                                                                                   S @XeX.XqX2X",
"<XwX|.tX.X3X6Xb.-                                                                                                   W wX|.tX.X3X",
"5X.XtX|.wX2X<X;X,                                                                     @ - , = $ O                   A .XtX|.wX2X",
"<X0X@XwX%X3X5XA.;                                                               3 L n.v.{.U.I.Y.z.N.L @             R 0X@XwX%X3X",
"5X&X9X%X8X3X2X`.,                                                           < ! $X5X%X9X&X5X3X<X9X%Xk.&             G &X9X%X8X3X",
"2X5X<X5X<X3X3XI.;                                                         2 x.3X3X2X5X<X5X2X3X3X<X5Xg.*             I 5X<X5X<X3X",
"2X5X2X5X2X3X3XU.;                                                       o d.2X3X3X2X5X2X5X3X3X3X2X5Xg.&             P 5X2X5X2X3X",
"3X,X9X&X8X3X2X_.,                                                       i &X8X<X3X5X&X9X,X5X3X<X9X&Xl.*             G ,X9X&X8X3X",
"2X6X<X6X<X3X3XI.;                                                     - +X6X<X5X3X2X6X<X6X2X3X5X<X6Xf.&             I 6X<X6X<X3X",
"5X&X0X%X8X3X2X'.,                                                     k 0X%X9X,X3X5X%X0XoX}.(.Q.:XP.7.%             G &X0X%X8X3X",
"<XqX.XeX#X3X6XZ.-                                                     Q .XwX@X9X3X<XeX_ 0 7 3 4 1 4 = X             E qX.XeX#X3X",
"5X@XeX XqX2X<X=X,                                                     %.eX XwX%X3X6Xh..                             S @XeX XqX2X",
"<XwX|.rX@X3X6XB.-                                                     1. XeX.X9X3X,X~                               E wX|.rX@X3X",
"5X@XrX XqX2X<X-X,                                                     6.eX XwX%X3X6Xt                               A @XrX XqX2X",
"2X0X#XqX%X3X5XD.;                                                     3.#XqX%X8X3X<Xd                               T 0X#XqX%X3X",
"3X,X8X&X6X3X2X_.,                                                     4.8X&X8X<X3X5Xu                               H ,X8X&X6X3X",
"2X9X%X0X&X3X5XG.;                                                     3.%X9X&X6X3X2Xd                               Y 9X%X0X&X3X",
"3X<X6X<X5X3X2X^.,                                                     4.6X<X6X2X3X3Xu                               J <X6X<X5X3X",
"3X2X3X2X3X3X3XR.>                                       V *.q.o.q.@.;.~.3X2X3X2X3X3Xm.o.q.$.-.,.o.w.w               L 2X3X2X3X3X",
"2X8X&X8X,X3X5XK.;                                       } 2X6X&X8X<X3X5X,X8X,X6X3X2X8X&X8X2X3X5X&X7Xq               U 8X&X8X,X3X",
"5X%XqX#X9X2X<X[.,                                       #.5X%X0X#X9X2X<XqX#X0X&X3X5X#XqX%X5X3X<XqXT.6               D %XqX#X9X2X",
"<XwX XrX@X3X6XV.-                                       ) <XwX.XwX#X3X6X XeX.X9X3X,XrX XwX<X2X8X X).#               E wX XrX@X3X",
"5X.XrX XqX2X<X-X,                                       :.5X@XeX.X0X2X<XrX XwX%X3X6X XrX.X6X3X&XrX<.                A .XrX XqX2X",
"<XqX XeX@X3X6XV.-                                       ` <XqX.XwX#X3X6X XeX.X9X3X,XeX XwX<X2X8X X{                 E qX XeX@X3X",
"5X.XrX|.wX2X<X-X,                                       Z 8.+.i.O.r.2.E.rX XeX%X3X6Xj.p.+.8.4.=.p.e                 A .XrX|.wX2X",
"<XwX|.rX@X3X6XB.-                                                     3. XrX.X0X3X,Xz                               E wX|.rX@X3X",
"5X%XqX@X0X2X<X{.,                                                     4.qX#X0X&X3X6Xt                               D %XqX@X0X<X",
"2X8X&X9X,X3X5XJ.;                                                     3.&X8X,X6X3X2Xs                               U 8X&X9X,X,X",
"3X2X5X2X5X3X3XW.,                                                     4.5X2X5X2X3X3Xu                               J 2X5X2X5X,X",
"3X<X5X<X5X3X2XW.,                                                     4.5X<X5X2X3X3Xu                               J <X5X<X5X<X",
"2X8X%X9X&X3X5XH.;                                                     3.%X9X&X6X3X<Xd                               Y 8X%X9X&X3X",
"5X#XwX@X0X2X<X{.,                                                     4.qX@XqX&X3X6Xt                               D #XwX@X0X2X",
"2X9X#X0X&X3X5XF.;                                                     3.%X0X%X8X3X<Xd                               T 9X#X0X&X3X",
"5X@XeX XqX2X<X=X,                                                     4.eX.XwX%X3X6Xr                               S @XeX XqX2X",
"<XwX XrX@X3X6XV.-                                                     3. XeX.X9X3X,Xz                               E wX XrX@X3X",
"5X@XrX XqX2X<X-X,                                                     6.eX XwX%X3X6Xr                               A @XrX XqX2X",
"<XqX XeX@X3X6XC.-                                                     3..XeX@X9X3X,Xl                               E qX XeX@X3X",
"5X&X0X#X9X2X2X[.,                                                     4.0X%X9X,X3X5Xy                               F &X0X#X9X2X",
"2X6X,X8X<X3X3XL.;                                                     3.,X6X,X5X3X2Xa                               U 6X,X8X<X3X",
"3X3X3X3X3X3X3XR.>                                                     4.3X3X3X3X3X3Xp                               P 3X3X3X3X3X",
"2X5X<X5X<X3X3X/.5                                                     3.<X5X<X3X3X2Xa                               / 5X<X5X<X3X",
"2X5X2X5X2X3X3X1XK                                                     4.2X5X2X3X3X2Xa                             2 !.5X2X5X2X3X",
"3X,X9X&X8X3X2X8XOX] C b c N f N c v m f N f n n h N f N c c N f N j n M.9X&X8X<X3X5X( f N c v M f B g n n x B f ^ S.3X,X9X&X8X3X",
"2X0X@XqX%X3X5X#XqX@X6X3X<X0X#XqX<X2X6X#XqX#X5X5X%XqX#X0X2X2X0X#X0X&X3X5X@XqX#X8X3X<XqX@X0X<X2X6X@XqX%X5X5X,XqX@X0X2X2X0X@XqX%X3X",
"5X.XrX|.wX2X<XwX XrX,X3X6X.XrX X6X3X,XeX XeX<X2XwX XeX.X5X5X@XrX.XqX2X<XrX XeX%X3X6X|.rX.X6X3X,XrX|.wX<X2X9X|.rX@X5X5X.XrX|.wX2X",
"<XwX|.rX@X3X6X.XrX X6X3X,XeX XrX<X2X8X XeX X5X5X@XeX XeX2X<XwX XeX#X3X6X XrX.X0X3X,XrX|.wX<X2X8X|.rX.X5X5X&XtX|.wX2X<XwX|.rX@X3X",
"5X@XeX XqX2X<XqX XeX,X3X6X@XeX.X6X3X,XwX.XwX<X2XqX.XwX@X5X5X@XwX.X0X2X<XeX.XwX%X3X6X XeX@X6X3X,XeX XqX<X2X8X XeX@X5X5X@XeX XqX2X",
"<X0X.XwX#X3X5X#XwX@X6X3X,XqX@XwX<X2X6X@XqX@X5X3X%XqX@XqX2X<X0X@XqX%X3X5X@XqX@X8X3X<XwX.X0X<X2X6X.XwX#X5X3X,XwX.X0X2X<X0X.XwX#X3X",
"5X@XrX XqX2X<XwX XrX,X3X6X.XeX X6X3X,XwX.XeX<X2XqX.XeX.X5X5X@XeX.X0X2X<XeX XwX%X3X6X XeX@X6X3X,XrX XwX<X2X8X XrX@X5X5X@XrX XqX2X",
"2X0X#XqX%X3X5X%XqX#X5X3X<X0X#XqX<X2X6X#X0X#X5X3X&X0X#X0X2X2X0X#X0X&X3X5X#XqX%X8X3X<XqX#X0X<X2X6X#XqX%X5X3X,XqX#X9X2X2X0X#XqX%X3X",
"3X,X8X&X6X3X2X8X&X8X2X3X5X,X8X,X5X3X2X8X&X8X2X3X6X,X8X,X3X3X,X8X,X6X3X2X8X&X8X<X3X5X&X8X,X5X3X2X8X&X8X2X2X5X&X8X,X3X3X,X8X&X6X3X",
"3X3X2X3X2X3X3X2X3X2X3X3X2X3X2X3X3X3X3X2X3X2X3X3X3X3X2X3X3X3X3X2X3X3X3X3X2X3X2X3X3X3X3X2X3X3X3X3X2X3X2X3X3X3X3X2X3X3X3X3X2X3X2X3X"
};
